<svg xmlns="http://www.w3.org/2000/svg" width="16" height="16" fill="none">
              <g clip-path="url(#a)">
                <path
                  fill="#656973"
                  d="M16 7.881a.738.738 0 0 0-.256-.455h-.028c-.029-.028-.057-.028-.057-.028-.028 0-.057-.029-.057-.029-.085-.056-.199-.056-.313-.056h-.056a.527.527 0 0 0-.2.056c-.028 0-.056.029-.056.029l-6.025 3.439c-.114.056-.227.142-.341.199-.199.085-.313.085-.512 0-.113-.057-.227-.114-.369-.2l-4.064-2.33a.516.516 0 0 0-.568 0 .597.597 0 0 0-.284.512v.256c0 .028 0 .085.028.113a.676.676 0 0 0 .256.37c.057.028.113.085.255.17l4.377 2.53c.199.113.284.17.426.227a.576.576 0 0 0 .483-.029c.086-.028.171-.085.37-.198l5.4-3.127c.028 0 .056-.028.113-.056.057-.029.057 0 .085 0 .057 0 .029.17.029.198v1.195c0 .056-.028.084-.028.141a68.56 68.56 0 0 0-.086.085c-.057.029-.114.057-.085.057-.028 0-.057.029-.085.057l-4.718 2.728c-.284.17-.511.285-.71.398-.427.2-.654.2-1.052 0-.199-.085-.426-.227-.739-.398L2.7 11.15c-.228-.142-.398-.227-.54-.34a2.18 2.18 0 0 1-.796-1.365c-.028-.17-.028-.37-.028-.682v-.881c.085-.455.37-.881.795-1.137.398-.227.91-.227 1.308 0l3.637 2.103c.341.2.569.313.74.398.426.2.625.2 1.05 0 .171-.085.399-.199.74-.398l5.428-3.126a.579.579 0 0 0 .255-.455V5.04a.738.738 0 0 0-.255-.455l-.086-.056-5.342-3.07c-.341-.199-.569-.312-.74-.398-.425-.199-.653-.199-1.05 0-.171.086-.399.2-.74.398L2.444 4.13c-.568.34-.796.454-.966.596C1.42 4.755.028 5.664 0 7.568v.796c0 .654 0 .938.057 1.222.142.938.625 1.79 1.364 2.387.227.17.455.313 1.023.654l3.354 1.932c.653.398 1.08.626 1.477.796.427.2.74.256 1.052.256.34 0 .653-.085 1.051-.256.398-.17.881-.455 1.478-.796l3.865-2.216c.341-.2.569-.313.71-.427.2-.142.313-.255.37-.397.085-.142.114-.284.142-.512.029-.199.029-.455.029-.824v-2.16C16 7.966 16 7.91 16 7.881ZM3.012 5.124l4.633-2.671c.284-.17.483-.284.653-.37.029 0 .057.029.086.029.142.057.34.17.625.34l4.689 2.7-4.69 2.7a5.062 5.062 0 0 1-.624.342c-.029.028-.057.028-.114 0a5.143 5.143 0 0 1-.625-.341L4.007 5.75a2.334 2.334 0 0 0-1.222-.341c-.114 0-.227 0-.313.028.114-.057.285-.17.54-.313Z"
                />
              </g>
              <defs>
                <clipPath id="a">
                  <path fill="#fff" d="M0 .918h16v14.693H0z" />
                </clipPath>
              </defs>
            </svg>